HIERARCHY
ROOT pelvis
{
  OFFSET 0 100 0
  CHANNELS 6 Xposition Yposition Zposition Zrotation Xrotation Yrotation
  JOINT pelvis_right_femur
  {
    OFFSET -10.78128 -3.44521 -0.5502486
    CHANNELS 3 Zrotation Xrotation Yrotation
    JOINT right_femur_tibia
    {
      OFFSET -0.8047443 -44.0398 -0.1307829
      CHANNELS 3 Zrotation Xrotation Yrotation
      JOINT right_tibia_foot
      {
        OFFSET 3.006224 -47.83518 -5
        CHANNELS 3 Zrotation Xrotation Yrotation
        End Site
        {
          OFFSET 0 -5 15
        }
      }
    }
  }
  JOINT pelvis_left_femur
  {
    OFFSET 10.78128 -3.44521 -0.5502486
    CHANNELS 3 Zrotation Xrotation Yrotation
    JOINT left_femur_tibia
    {
      OFFSET 0.8047443 -44.0398 -0.1307829
      CHANNELS 3 Zrotation Xrotation Yrotation
      JOINT left_tibia_foot
      {
        OFFSET -4.370144 -48.10324 -4.275266
        CHANNELS 3 Zrotation Xrotation Yrotation
        End Site
        {
          OFFSET 0 -5 15
        }
      }
    }
  }
  JOINT pelvis_spine1
  {
    OFFSET 0 6.468898 -3.129235
    CHANNELS 3 Zrotation Xrotation Yrotation
    JOINT spine1
    {
      OFFSET 0 23.15396 4.99043
      CHANNELS 3 Zrotation Xrotation Yrotation
      JOINT spine2
      {
        OFFSET 0 20.79997 -5.064912
        CHANNELS 3 Zrotation Xrotation Yrotation
        JOINT neck
        {
          OFFSET 0 14.38658 9.616178
          CHANNELS 3 Zrotation Xrotation Yrotation
          End Site
          {
            OFFSET 0 20 0
          }
        }
      }
      JOINT right_manubrium
      {
        OFFSET -5.722621 16.35077 3.967754
        CHANNELS 3 Zrotation Xrotation Yrotation
        JOINT right_clavicle
        {
          OFFSET -13.16364 1.694482 -4.693211
          CHANNELS 3 Zrotation Xrotation Yrotation
          JOINT right_humerus
          {
            OFFSET -28.5034 -0.3100689 -2.792744
            CHANNELS 3 Zrotation Xrotation Yrotation
            JOINT right_radius
            {
              OFFSET -25.15693 0.02248979 -1.271978
              CHANNELS 3 Zrotation Xrotation Yrotation
              End Site
              {
                OFFSET -15 0 0
              }
            }
          }
        }
      }
      JOINT left_manubrium
      {
        OFFSET 5.722621 16.35077 3.967754
        CHANNELS 3 Zrotation Xrotation Yrotation
        JOINT left_clavicle
        {
          OFFSET 13.16364 1.694482 -4.693211
          CHANNELS 3 Zrotation Xrotation Yrotation
          JOINT left_humerus
          {
            OFFSET 29.39168 -1.063119 -2.237045
            CHANNELS 3 Zrotation Xrotation Yrotation
            JOINT left_radius
            {
              OFFSET 24.59957 -0.9528479 0.9047498
              CHANNELS 3 Zrotation Xrotation Yrotation
              End Site
              {
                OFFSET 15 -0 -0
              }
            }
          }
        }
      }
    }
  }
}
MOTION
Frames: 7
Frame Time: 0.0416666666667
1583.213 103.3722 1596.726 8.533558 0.5270992 87.13187 0.5872182 -4.705809 3.147864 -0 61.95447 -0 -5.782753 1.559682 -6.618757 -5.827612 4.565441 -11.11048 -0 16.69244 -0 -0.7066162 -13.00061 18.06053 -3.24528 0.0214867 1.620175 0.1926599 10.21709 -6.199887 1.450465 24.53058 5.490962 1.366727 -17.94663 7.405519 2.645405 -16.88976 10.727 88.93119 28.0095 -14.33433 -0 0 10.48495 -19.69078 8.277545 11.84643 1.972202 -17.75893 -4.545262 -86.66985 26.78698 15.40512 0 0 -13.90406 -0.0703819 10.71579 14.81398
1587.19 104.3078 1596.786 8.493039 0.3921197 88.15887 0.9835001 -8.166598 3.302708 -0 57.992 -0 -6.343119 -3.451664 -7.433772 -5.691698 8.645812 -12.34105 -0 14.47231 -0 -0.8847356 -14.33065 17.89489 -3.133 -0.1666953 0.9330765 0.818666 9.557648 -6.932209 1.398434 25.0104 5.32669 1.030779 -17.74577 7.501133 2.396928 -16.41778 10.49866 89.41111 27.3622 -16.00208 -0 0 9.93212 -17.43839 7.531117 10.42612 2.234515 -18.17035 -4.442303 -86.34829 28.62657 13.69288 0 0 -15.5073 -0.8369514 12.01897 15.19714
1590.709 104.7959 1596.887 8.091472 0.4281805 88.94706 1.194123 -10.97857 3.49185 -0 52.67314 -0 -6.648796 -7.619925 -7.806544 -5.626217 11.53307 -13.83658 -0 12.79722 -0 -1.246415 -16.01553 17.87739 -3.183251 -0.4277544 0.7442685 1.280847 8.8558 -7.367362 1.473707 25.26048 5.254337 0.9830937 -17.82127 7.651957 2.285806 -16.11744 10.26846 89.43428 26.97466 -17.35122 -0 0 9.982572 -15.43371 7.018507 9.005896 2.746064 -18.49679 -4.174282 -86.68485 30.52653 12.96262 0 0 -16.84353 -1.758829 13.3958 15.81097
1593.909 104.8824 1597.006 7.378586 0.5140055 89.5417 1.384243 -13.53378 3.700783 -0 47.20245 -0 -6.715037 -10.48601 -7.807761 -5.579884 13.4293 -15.33428 -0 11.57381 -0 -1.692661 -17.88097 17.89083 -3.299965 -0.6555875 0.8671831 1.605214 8.20902 -7.585768 1.612094 25.26261 5.287999 1.154632 -18.18793 7.84325 2.340647 -15.95795 10.09044 89.16374 26.91794 -18.39351 -0 0 10.42155 -13.73902 6.782628 7.702717 3.384695 -18.76216 -3.811261 -87.47289 32.21711 13.05597 0 0 -17.90803 -2.613864 14.67223 16.4793
1596.909 104.6438 1597.127 6.443515 0.5549698 90.00402 1.667929 -16.05087 3.917106 -0 42.21553 -0 -6.596509 -12.12724 -7.549271 -5.510086 14.62287 -16.64766 -0 10.67853 -0 -2.175991 -19.73522 17.8368 -3.400952 -0.7984147 1.129146 1.842627 7.649655 -7.680377 1.758073 25.05612 5.418139 1.457811 -18.78114 8.061743 2.536771 -15.88276 9.9808 88.72573 27.14638 -19.16384 -0 0 11.04964 -12.34113 6.797603 6.56989 4.060261 -18.98298 -3.398942 -88.4821 33.51496 13.67274 0 0 -18.70779 -3.221678 15.76017 16.99005
1599.813 104.1618 1597.236 5.367445 0.5015525 90.38997 2.095467 -18.61902 4.122874 -0 37.90441 -0 -6.365696 -12.79299 -7.130702 -5.393083 15.3723 -17.67657 -0 10.04297 -0 -2.686164 -21.43661 17.65084 -3.438569 -0.8437098 1.412523 2.037539 7.178493 -7.723993 1.875016 24.69514 5.630255 1.828277 -19.51924 8.294434 2.835825 -15.83513 9.93582 88.20628 27.58807 -19.71529 -0 0 11.71079 -11.21039 7.017181 5.623117 4.723209 -19.17856 -2.967541 -89.50951 34.33866 14.50771 0 0 -19.27536 -3.474651 16.63451 17.18092
1602.72 103.5113 1597.328 4.206171 0.3358467 90.74297 2.675949 -21.25415 4.297616 -0 34.22103 -0 -6.098451 -12.71621 -6.620314 -5.218977 15.86848 -18.38028 -0 9.660431 -0 -3.232804 -22.8913 17.29486 -3.389595 -0.7995584 1.648597 2.219395 6.788119 -7.765006 1.94131 24.2269 5.912717 2.230006 -20.33616 8.527122 3.204122 -15.77173 9.945936 87.66677 28.19128 -20.10958 -0 0 12.28944 -10.32508 7.398583 4.8668 5.348599 -19.37067 -2.541387 -90.40267 34.68505 15.32195 0 0 -19.6671 -3.338022 17.29395 16.97477
